/* XPM */
static char *closed_icon[] = { 
/* width height num_colors chars_per_pixel */ 
"     16     16        3            1", 
/* colors */ 
". c None", 
"# c #000000", 
"a c #7592ff", 
/* pixels */ 
"................", 
"................", 
"................", 
"................", 
"......##........", 
"......#a#.......", 
"......#aa#......", 
"......#aaa#.....", 
"......#aaa#.....", 
"......#aa#......", 
"......#a#.......", 
"......##........", 
"................", 
"................", 
"................", 
"................" 
}; 
